<svg width="16" height="20" viewBox="0 0 16 20" fill="none" xmlns="http://www.w3.org/2000/svg">
<path d="M15.841 16.9861C15.895 17.0486 15.9366 17.1215 15.9634 17.2007C15.9902 17.2799 16.0017 17.3638 15.9972 17.4476C15.9927 17.5314 15.9724 17.6135 15.9373 17.6891C15.9022 17.7648 15.8531 17.8325 15.7928 17.8884C14.6808 18.9196 13.3131 19.6078 11.8441 19.8752C10.3751 20.1425 8.86329 19.9785 7.47941 19.4015C6.09553 18.8245 4.89468 17.8576 4.01248 16.6099C3.13027 15.3623 2.60184 13.8836 2.48685 12.3408H0.615303C0.452114 12.3408 0.295609 12.2735 0.180218 12.1538C0.0648263 12.0341 0 11.8717 0 11.7024C0 11.5331 0.0648263 11.3707 0.180218 11.251C0.295609 11.1312 0.452114 11.064 0.615303 11.064H2.46121V8.93602H0.615303C0.452114 8.93602 0.295609 8.86876 0.180218 8.74903C0.0648263 8.62931 0 8.46694 0 8.29762C0 8.12831 0.0648263 7.96594 0.180218 7.84621C0.295609 7.72649 0.452114 7.65923 0.615303 7.65923H2.48685C2.60184 6.11644 3.13027 4.63772 4.01248 3.39006C4.89468 2.14239 6.09553 1.17548 7.47941 0.598502C8.86329 0.0215223 10.3751 -0.142544 11.8441 0.124831C13.3131 0.392205 14.6808 1.08037 15.7928 2.11162C15.9152 2.22449 15.9893 2.38319 15.9989 2.55279C16.0085 2.7224 15.9528 2.88902 15.844 3.01601C15.7352 3.14299 15.5823 3.21993 15.4188 3.22991C15.2553 3.23989 15.0948 3.18208 14.9724 3.0692C14.0379 2.20239 12.8897 1.62185 11.6559 1.3923C10.422 1.16275 9.151 1.29322 7.98443 1.76914C6.81787 2.24507 5.80161 3.04777 5.04892 4.08776C4.29624 5.12775 3.83671 6.36418 3.72155 7.65923H10.4601C10.6233 7.65923 10.7798 7.72649 10.8952 7.84621C11.0106 7.96594 11.0754 8.12831 11.0754 8.29762C11.0754 8.46694 11.0106 8.62931 10.8952 8.74903C10.7798 8.86876 10.6233 8.93602 10.4601 8.93602H3.69181V11.064H8.81934C8.98252 11.064 9.13903 11.1312 9.25442 11.251C9.36981 11.3707 9.43464 11.5331 9.43464 11.7024C9.43464 11.8717 9.36981 12.0341 9.25442 12.1538C9.13903 12.2735 8.98252 12.3408 8.81934 12.3408H3.72155C3.8357 13.6364 4.29449 14.8736 5.04677 15.9144C5.79905 16.9553 6.81523 17.7589 7.98197 18.2355C9.14872 18.7122 10.4202 18.8432 11.6545 18.614C12.8888 18.3847 14.0375 17.8042 14.9724 16.9372C15.0938 16.8242 15.2535 16.7659 15.4164 16.7751C15.5793 16.7843 15.732 16.8602 15.841 16.9861Z" fill="white"/>
</svg>
