<svg width="20" height="16" viewBox="0 0 20 16" fill="none" xmlns="http://www.w3.org/2000/svg">
<path d="M19.8354 1.58231L6.75423 15.3118C6.63926 15.4323 6.48341 15.5 6.32091 15.5C6.15842 15.5 6.00257 15.4323 5.8876 15.3118L0.164571 9.30514C0.0562586 9.18314 -0.00270729 9.02178 9.55315e-05 8.85505C0.00289836 8.68832 0.0672511 8.52924 0.179597 8.41133C0.291942 8.29342 0.443508 8.22588 0.602364 8.22293C0.76122 8.21999 0.914962 8.28188 1.0312 8.39556L6.32091 13.9463L18.9688 0.672728C19.085 0.559048 19.2388 0.497159 19.3976 0.5001C19.5565 0.503042 19.7081 0.570585 19.8204 0.688498C19.9328 0.806411 19.9971 0.965489 19.9999 1.13222C20.0027 1.29895 19.9437 1.46031 19.8354 1.58231Z" fill="white"/>
</svg>
