<svg width="25" height="20" viewBox="0 0 25 20" fill="none" xmlns="http://www.w3.org/2000/svg">
<path d="M18.7418 8.78723C18.7418 8.98712 18.6841 9.18252 18.576 9.34871C18.468 9.51491 18.3143 9.64445 18.1346 9.72094C17.9549 9.79743 17.7571 9.81745 17.5663 9.77845C17.3755 9.73946 17.2002 9.6432 17.0627 9.50186C16.9251 9.36052 16.8314 9.18044 16.7935 8.9844C16.7555 8.78836 16.775 8.58515 16.8495 8.40048C16.9239 8.21581 17.05 8.05797 17.2117 7.94692C17.3735 7.83587 17.5637 7.7766 17.7582 7.7766C18.0191 7.7766 18.2693 7.88307 18.4537 8.07261C18.6382 8.26214 18.7418 8.5192 18.7418 8.78723ZM15.0041 3.73404H11.0697C10.9132 3.73404 10.763 3.79793 10.6524 3.91165C10.5417 4.02537 10.4795 4.1796 10.4795 4.34043C10.4795 4.50125 10.5417 4.65548 10.6524 4.7692C10.763 4.88292 10.9132 4.94681 11.0697 4.94681H15.0041C15.1606 4.94681 15.3107 4.88292 15.4214 4.7692C15.5321 4.65548 15.5943 4.50125 15.5943 4.34043C15.5943 4.1796 15.5321 4.02537 15.4214 3.91165C15.3107 3.79793 15.1606 3.73404 15.0041 3.73404ZM24.25 8.38298V11.617C24.25 12.2067 24.022 12.7722 23.6162 13.1892C23.2104 13.6062 22.66 13.8404 22.0861 13.8404H21.7152L20.0746 18.5611C19.979 18.836 19.803 19.0738 19.5708 19.2419C19.3385 19.41 19.0613 19.5001 18.7772 19.5H17.5261C17.242 19.5001 16.9648 19.41 16.7325 19.2419C16.5003 19.0738 16.3243 18.836 16.2287 18.5611L15.9936 17.883H10.0802L9.84508 18.5611C9.7495 18.836 9.57352 19.0738 9.34125 19.2419C9.10898 19.41 8.8318 19.5001 8.5477 19.5H7.29656C7.01246 19.5001 6.73528 19.41 6.50301 19.2419C6.27074 19.0738 6.09476 18.836 5.99918 18.5611L4.75098 14.9703C3.5269 13.5598 2.78528 11.7767 2.63918 9.89287C2.28724 10.0138 1.98119 10.2454 1.76428 10.5547C1.54736 10.8641 1.43054 11.2357 1.43033 11.617C1.43033 11.7778 1.36815 11.9321 1.25747 12.0458C1.1468 12.1595 0.996685 12.2234 0.840164 12.2234C0.683643 12.2234 0.533532 12.1595 0.422855 12.0458C0.312178 11.9321 0.25 11.7778 0.25 11.617C0.250046 10.9149 0.487289 10.2345 0.921227 9.69202C1.35517 9.14957 1.95889 8.7787 2.62934 8.64271C2.76743 6.43817 3.71641 4.37012 5.2838 2.85799C6.85119 1.34587 8.91966 0.50288 11.0697 0.5H21.2992C21.4557 0.5 21.6058 0.563887 21.7165 0.677605C21.8272 0.791324 21.8893 0.94556 21.8893 1.10638C21.8893 1.26721 21.8272 1.42144 21.7165 1.53516C21.6058 1.64888 21.4557 1.71277 21.2992 1.71277H18.5274C20.0636 2.64612 21.2729 4.05523 21.9818 5.73814C22.0408 5.87761 22.0959 6.01809 22.147 6.16059C22.7102 6.1769 23.2449 6.41819 23.6376 6.83319C24.0303 7.24819 24.25 7.80417 24.25 8.38298ZM23.0697 8.38298C23.0697 8.11494 22.966 7.85788 22.7816 7.66835C22.5971 7.47882 22.3469 7.37234 22.0861 7.37234H21.7261C21.6004 7.37248 21.4779 7.33138 21.3765 7.25503C21.2752 7.17868 21.2002 7.07107 21.1625 6.94787C21.0873 6.70098 20.9993 6.45841 20.8989 6.22122C20.3347 4.88185 19.4015 3.74133 18.2143 2.94022C17.027 2.13912 15.6376 1.71244 14.2172 1.71277H11.0697C9.65699 1.71262 8.27479 2.13488 7.09166 2.92802C5.90853 3.72117 4.97561 4.85093 4.40666 6.17952C3.83772 7.50811 3.65735 8.9781 3.88756 10.4102C4.11777 11.8423 4.7486 13.1746 5.70311 14.2447C5.75606 14.303 5.79689 14.3718 5.82311 14.4468L7.11066 18.1498C7.1238 18.1898 7.14879 18.2245 7.18213 18.2492C7.21547 18.2738 7.25548 18.2871 7.29656 18.2872H8.5477C8.58842 18.2874 8.62817 18.2745 8.66146 18.2504C8.69476 18.2263 8.71997 18.1922 8.73361 18.1528L9.10836 17.0745C9.149 16.9564 9.22425 16.8541 9.32377 16.7817C9.42328 16.7093 9.54217 16.6704 9.6641 16.6702H16.4097C16.5316 16.6704 16.6505 16.7093 16.75 16.7817C16.8495 16.8541 16.9248 16.9564 16.9654 17.0745L17.3402 18.1548C17.3538 18.1943 17.379 18.2284 17.4123 18.2524C17.4456 18.2765 17.4854 18.2894 17.5261 18.2893H18.7772C18.8179 18.2894 18.8577 18.2765 18.891 18.2524C18.9243 18.2284 18.9495 18.1943 18.9631 18.1548L20.7434 13.0319C20.7841 12.9138 20.8593 12.8115 20.9588 12.7391C21.0584 12.6667 21.1773 12.6278 21.2992 12.6277H22.0861C22.3469 12.6277 22.5971 12.5212 22.7816 12.3317C22.966 12.1421 23.0697 11.8851 23.0697 11.617V8.38298Z" fill="white"/>
</svg>
