<svg width="22" height="20" viewBox="0 0 22 20" fill="none" xmlns="http://www.w3.org/2000/svg">
<path d="M22 18.8372C22 19.013 21.9318 19.1816 21.8105 19.3059C21.6891 19.4302 21.5246 19.5 21.3529 19.5H0.647059C0.475448 19.5 0.310866 19.4302 0.189519 19.3059C0.068172 19.1816 0 19.013 0 18.8372V1.16279C0 0.987008 0.068172 0.818424 0.189519 0.694127C0.310866 0.569829 0.475448 0.5 0.647059 0.5C0.818669 0.5 0.983252 0.569829 1.1046 0.694127C1.22595 0.818424 1.29412 0.987008 1.29412 1.16279V12.0745L7.12304 6.84954C7.23474 6.74957 7.37657 6.69195 7.5248 6.68632C7.67302 6.68069 7.81864 6.72739 7.93725 6.8186L14.4197 11.7984L20.927 5.96581C21.0572 5.86303 21.2208 5.8149 21.3845 5.83122C21.5482 5.84754 21.6996 5.92707 21.8081 6.05366C21.9166 6.18025 21.9739 6.3444 21.9685 6.51274C21.9631 6.68109 21.8953 6.84101 21.7789 6.96L14.877 13.146C14.7653 13.246 14.6234 13.3036 14.4752 13.3093C14.327 13.3149 14.1814 13.2682 14.0627 13.177L7.58029 8.20163L1.29412 13.8353V18.1744H21.3529C21.5246 18.1744 21.6891 18.2442 21.8105 18.3685C21.9318 18.4928 22 18.6614 22 18.8372Z" fill="white"/>
</svg>
