<svg width="15" height="20" viewBox="0 0 15 20" fill="none" xmlns="http://www.w3.org/2000/svg">
<path d="M15 19.3333C15 19.5102 14.9323 19.6797 14.8117 19.8047C14.6912 19.9298 14.5276 20 14.3571 20H0.642857C0.472361 20 0.308848 19.9298 0.188288 19.8047C0.0677293 19.6797 0 19.5102 0 19.3333C0 19.1565 0.0677293 18.987 0.188288 18.862C0.308848 18.7369 0.472361 18.6667 0.642857 18.6667H1.07143C1.92391 18.6667 2.74148 18.3155 3.34427 17.6904C3.94707 17.0653 4.28571 16.2175 4.28571 15.3334V11.1113H0.642857C0.472361 11.1113 0.308848 11.0411 0.188288 10.916C0.0677293 10.791 0 10.6215 0 10.4446C0 10.2678 0.0677293 10.0983 0.188288 9.97325C0.308848 9.84823 0.472361 9.778 0.642857 9.778H4.28571V5.55586C4.28564 4.50237 4.57442 3.47057 5.11837 2.58082C5.66232 1.69107 6.43902 0.980048 7.35787 0.530699C8.27671 0.0813509 9.29982 -0.0878021 10.3079 0.0429714C11.3159 0.173745 12.2673 0.599054 13.0511 1.26929C13.1826 1.38185 13.2657 1.54401 13.282 1.72008C13.2982 1.89615 13.2464 2.07172 13.1379 2.20816C13.0293 2.34459 12.8729 2.43072 12.7032 2.4476C12.5334 2.46448 12.3641 2.41072 12.2325 2.29815C11.6368 1.78897 10.9138 1.4659 10.1478 1.36661C9.38182 1.26732 8.60438 1.39591 7.90617 1.73738C7.20796 2.07886 6.61776 2.61914 6.20438 3.29522C5.791 3.9713 5.57148 4.75533 5.57143 5.55586V9.778H9.21429C9.38478 9.778 9.5483 9.84823 9.66885 9.97325C9.78941 10.0983 9.85714 10.2678 9.85714 10.4446C9.85714 10.6215 9.78941 10.791 9.66885 10.916C9.5483 11.0411 9.38478 11.1113 9.21429 11.1113H5.57143V15.3334C5.57182 15.9546 5.45228 16.5695 5.21987 17.142C4.98747 17.7144 4.64689 18.2329 4.21821 18.6667H14.3571C14.5276 18.6667 14.6912 18.7369 14.8117 18.862C14.9323 18.987 15 19.1565 15 19.3333Z" fill="white"/>
</svg>
