<svg width="16" height="22" viewBox="0 0 16 22" fill="none" xmlns="http://www.w3.org/2000/svg">
<path d="M15.5 6.6C15.5 10.0222 12.5218 12.8468 8.72581 13.1694V14.4222C8.72581 14.6167 8.64934 14.8032 8.51322 14.9408C8.37711 15.0783 8.1925 15.1556 8 15.1556C7.8075 15.1556 7.62289 15.0783 7.48678 14.9408C7.35066 14.8032 7.27419 14.6167 7.27419 14.4222V12.4667C7.27419 12.2722 7.35066 12.0856 7.48678 11.9481C7.62289 11.8106 7.8075 11.7333 8 11.7333C11.3351 11.7333 14.0484 9.43067 14.0484 6.6C14.0484 3.76933 11.3351 1.46667 8 1.46667C4.66492 1.46667 1.95161 3.76933 1.95161 6.6C1.95161 6.79449 1.87514 6.98102 1.73903 7.11854C1.60291 7.25607 1.4183 7.33333 1.22581 7.33333C1.03331 7.33333 0.848699 7.25607 0.712584 7.11854C0.576469 6.98102 0.5 6.79449 0.5 6.6C0.5 2.96022 3.86411 0 8 0C12.1359 0 15.5 2.96022 15.5 6.6ZM8 18.5778C7.66505 18.5778 7.33762 18.6781 7.05911 18.8662C6.78061 19.0542 6.56355 19.3214 6.43537 19.6341C6.30718 19.9467 6.27365 20.2908 6.33899 20.6227C6.40434 20.9546 6.56563 21.2595 6.80248 21.4988C7.03933 21.7381 7.34109 21.9011 7.66961 21.9671C7.99812 22.0331 8.33864 21.9993 8.64809 21.8697C8.95755 21.7402 9.22204 21.5209 9.40813 21.2395C9.59422 20.9581 9.69355 20.6273 9.69355 20.2889C9.69355 19.8351 9.51512 19.3998 9.19752 19.079C8.87992 18.7581 8.44916 18.5778 8 18.5778Z" fill="black"/>
</svg>
