<svg width="25" height="24" viewBox="0 0 25 24" fill="none" xmlns="http://www.w3.org/2000/svg">
<path d="M12.9705 6.96878C11.9754 6.96878 11.0027 7.26386 10.1753 7.8167C9.34789 8.36954 8.70302 9.15531 8.32222 10.0747C7.94141 10.994 7.84178 12.0056 8.03591 12.9816C8.23004 13.9575 8.70922 14.854 9.41286 15.5577C10.1165 16.2613 11.013 16.7405 11.9889 16.9346C12.9649 17.1287 13.9765 17.0291 14.8959 16.6483C15.8152 16.2675 16.601 15.6226 17.1538 14.7952C17.7067 13.9679 18.0017 12.9951 18.0017 12C18 10.6662 17.4694 9.38748 16.5262 8.44432C15.583 7.50115 14.3043 6.97052 12.9705 6.96878ZM12.9705 15.7188C12.235 15.7188 11.516 15.5007 10.9045 15.0921C10.2929 14.6834 9.81627 14.1026 9.53481 13.4231C9.25335 12.7436 9.1797 11.9959 9.32319 11.2745C9.46668 10.5532 9.82086 9.89055 10.3409 9.37048C10.861 8.8504 11.5236 8.49622 12.245 8.35274C12.9664 8.20925 13.7141 8.28289 14.3936 8.56435C15.0731 8.84582 15.6539 9.32246 16.0625 9.934C16.4711 10.5455 16.6892 11.2645 16.6892 12C16.6892 12.9863 16.2974 13.9322 15.6 14.6296C14.9026 15.327 13.9568 15.7188 12.9705 15.7188ZM24.783 9.76878C24.764 9.67733 24.7256 9.59099 24.6705 9.51554C24.6155 9.44009 24.5449 9.37727 24.4636 9.33128L21.1342 7.43034L21.0883 7.35269L21.0752 3.60003C21.0752 3.50524 21.0547 3.41158 21.015 3.32548C20.9754 3.23938 20.9175 3.16289 20.8455 3.10128C19.6827 2.11808 18.344 1.36429 16.9003 0.879875C16.8135 0.850694 16.7216 0.839998 16.6304 0.848475C16.5393 0.856951 16.4509 0.884413 16.371 0.929093L13.0208 2.79722H12.9114L9.57002 0.926906C9.48973 0.882093 9.40092 0.854653 9.30935 0.846362C9.21778 0.838072 9.12549 0.849116 9.03846 0.878781C7.59494 1.36461 6.25689 2.12031 5.09549 3.10566C5.02319 3.16694 4.96503 3.24316 4.92501 3.32907C4.88498 3.41498 4.86403 3.50854 4.86361 3.60331L4.84611 7.35925C4.8308 7.38441 4.81549 7.41066 4.80127 7.43691L1.47627 9.328C1.39456 9.37469 1.32384 9.43842 1.26892 9.51485C1.21401 9.59128 1.17617 9.67863 1.15799 9.77097C0.865957 11.2434 0.865957 12.7588 1.15799 14.2313C1.17702 14.3227 1.21535 14.4091 1.27043 14.4845C1.32551 14.56 1.39606 14.6228 1.47736 14.6688L4.80455 16.5642L4.85049 16.6419L4.86361 20.3946C4.86308 20.4904 4.88357 20.5853 4.92363 20.6724C4.96369 20.7595 5.02235 20.8368 5.09549 20.8988C6.25829 21.882 7.59699 22.6358 9.04064 23.1202C9.12743 23.1494 9.21937 23.1601 9.31054 23.1516C9.40171 23.1431 9.4901 23.1156 9.57002 23.071L12.918 21.2028H13.0274L16.3699 23.0732C16.4677 23.1272 16.5775 23.1558 16.6892 23.1563C16.7611 23.1566 16.8324 23.1448 16.9003 23.1213C18.3419 22.6348 19.6781 21.8792 20.8378 20.8944C20.9101 20.8331 20.9683 20.7569 21.0083 20.671C21.0483 20.5851 21.0693 20.4915 21.0697 20.3967L21.0872 16.6408C21.1025 16.6157 21.1178 16.5894 21.132 16.5632L24.4592 14.6721C24.5412 14.6255 24.6121 14.5618 24.6672 14.4854C24.7223 14.4089 24.7603 14.3215 24.7786 14.2291C25.0721 12.7569 25.0736 11.2415 24.783 9.76878ZM23.5525 13.6833L20.3336 15.511C20.2292 15.5707 20.143 15.6576 20.0842 15.7625C20.0197 15.8719 19.9519 15.9933 19.8808 16.106C19.8161 16.2097 19.7816 16.3294 19.7813 16.4516L19.7638 20.0839C18.8588 20.809 17.8423 21.3826 16.7538 21.7825L13.5174 19.9713C13.4195 19.9163 13.3092 19.8873 13.1969 19.8871H13.1816C13.046 19.8871 12.9081 19.8871 12.7725 19.8871C12.6552 19.8842 12.5392 19.9129 12.4367 19.9702L9.19158 21.7814C8.10172 21.3836 7.08368 20.8114 6.17721 20.0872L6.16408 16.4592C6.16374 16.337 6.12927 16.2173 6.06455 16.1136C5.99455 16.0042 5.92564 15.8861 5.86111 15.7702C5.80292 15.6652 5.71704 15.5782 5.61283 15.5186L2.39392 13.6844C2.20681 12.5697 2.20681 11.4315 2.39392 10.3167L5.60736 8.48909C5.71335 8.43 5.80111 8.343 5.86111 8.23753C5.92564 8.12816 5.99346 8.00675 6.06455 7.89409C6.12927 7.7904 6.16374 7.6707 6.16408 7.54847L6.18158 3.91612C7.08525 3.19148 8.10025 2.61787 9.18721 2.21753L12.4236 4.02878C12.5257 4.08701 12.6419 4.11578 12.7594 4.11191C12.895 4.11191 13.0328 4.11191 13.1685 4.11191C13.2858 4.11473 13.4018 4.08602 13.5042 4.02878L16.7472 2.21753C17.8371 2.61541 18.8551 3.18759 19.7616 3.91175L19.7747 7.53972C19.775 7.66195 19.8095 7.78165 19.8742 7.88534C19.9442 7.99472 20.0131 8.11284 20.0777 8.22878C20.1359 8.33376 20.2217 8.42077 20.326 8.48034L23.547 10.3157C23.7353 11.4302 23.7364 12.5684 23.5503 13.6833H23.5525Z" fill="white"/>
</svg>
