<svg width="23" height="22" viewBox="0 0 23 22" fill="none" xmlns="http://www.w3.org/2000/svg">
<path d="M22.0582 3.96895L11.7051 0.533153C11.5721 0.488949 11.4283 0.488949 11.2953 0.533153L0.942165 3.96895C0.813415 4.01174 0.701442 4.09376 0.62209 4.2034C0.542739 4.31304 0.500028 4.44474 0.5 4.57988V13.1694C0.5 13.3402 0.568173 13.5041 0.689522 13.6249C0.810872 13.7457 0.975457 13.8136 1.14707 13.8136C1.31868 13.8136 1.48327 13.7457 1.60462 13.6249C1.72597 13.5041 1.79414 13.3402 1.79414 13.1694V5.47319L5.96559 6.85824C5.43955 7.63222 5.08309 8.50779 4.9194 9.42798C4.75571 10.3482 4.78846 11.2924 5.01552 12.1991C5.24258 13.1059 5.65886 13.9549 6.23727 14.6909C6.81569 15.4269 7.54327 16.0334 8.37269 16.471C6.29667 17.1721 4.49027 18.5743 3.19613 20.551C3.12174 20.6928 3.10304 20.8572 3.14367 21.012C3.1843 21.1668 3.28136 21.301 3.41593 21.3885C3.55051 21.476 3.71298 21.5105 3.8717 21.4853C4.03043 21.4601 4.17404 21.3769 4.27458 21.2521C5.94294 18.7085 8.57544 17.2494 11.5002 17.2494C14.425 17.2494 17.0575 18.7085 18.7258 21.2521C18.8257 21.3796 18.9702 21.465 19.1304 21.4914C19.2907 21.5177 19.4551 21.4831 19.5909 21.3944C19.7267 21.3057 19.8241 21.1694 19.8636 21.0126C19.9031 20.8557 19.8819 20.6898 19.8043 20.5477C18.5101 18.5743 16.7059 17.1721 14.6277 16.4677C15.4567 16.0297 16.1837 15.4228 16.7616 14.6866C17.3395 13.9504 17.7552 13.1013 17.9818 12.1946C18.2083 11.2879 18.2406 10.3438 18.0765 9.42389C17.9124 8.50393 17.5557 7.62866 17.0294 6.85502L22.0582 5.19081C22.1869 5.14795 22.2988 5.0659 22.3781 4.95627C22.4573 4.84663 22.5 4.71496 22.5 4.57988C22.5 4.44479 22.4573 4.31312 22.3781 4.20349C22.2988 4.09386 22.1869 4.01181 22.0582 3.96895ZM16.8925 10.5925C16.8928 11.448 16.6879 12.2911 16.2947 13.0517C15.9014 13.8123 15.3313 14.4683 14.6319 14.9652C13.9324 15.462 13.1238 15.7852 12.2734 15.9078C11.4231 16.0305 10.5556 15.9491 9.74325 15.6704C8.93091 15.3916 8.19723 14.9237 7.60334 14.3055C7.00945 13.6873 6.57254 12.9367 6.32903 12.1164C6.08552 11.296 6.04244 10.4296 6.20339 9.58927C6.36435 8.74898 6.72467 7.95914 7.25434 7.28557L11.2953 8.6266C11.4283 8.67081 11.5721 8.67081 11.7051 8.6266L15.7461 7.28557C16.49 8.22864 16.8938 9.39338 16.8925 10.5925ZM11.5002 7.3371L3.19613 4.57988L11.5002 1.82265L19.8043 4.57988L11.5002 7.3371Z" fill="white"/>
</svg>
