<svg width="18" height="20" viewBox="0 0 18 20" fill="none" xmlns="http://www.w3.org/2000/svg">
<path d="M18 5.34884C18 5.53387 17.9271 5.71133 17.7972 5.84217C17.6674 5.97301 17.4913 6.04651 17.3077 6.04651H9.69231V19.3023C9.69231 19.4874 9.61937 19.6648 9.48954 19.7957C9.3597 19.9265 9.18361 20 9 20C8.81639 20 8.6403 19.9265 8.51046 19.7957C8.38063 19.6648 8.30769 19.4874 8.30769 19.3023V6.04651H0.692308C0.508696 6.04651 0.332605 5.97301 0.202772 5.84217C0.0729393 5.71133 0 5.53387 0 5.34884C0 5.1638 0.0729393 4.98635 0.202772 4.85551C0.332605 4.72467 0.508696 4.65116 0.692308 4.65116H17.3077C17.4913 4.65116 17.6674 4.72467 17.7972 4.85551C17.9271 4.98635 18 5.1638 18 5.34884ZM0.692308 1.39535H17.3077C17.4913 1.39535 17.6674 1.32184 17.7972 1.191C17.9271 1.06017 18 0.882709 18 0.697674C18 0.51264 17.9271 0.335183 17.7972 0.204344C17.6674 0.0735047 17.4913 0 17.3077 0L0.692308 0C0.508696 0 0.332605 0.0735047 0.202772 0.204344C0.0729393 0.335183 0 0.51264 0 0.697674C0 0.882709 0.0729393 1.06017 0.202772 1.191C0.332605 1.32184 0.508696 1.39535 0.692308 1.39535Z" fill="white"/>
</svg>
