<svg width="14" height="22" viewBox="0 0 14 22" fill="none" xmlns="http://www.w3.org/2000/svg">
<path d="M14 15C13.9984 16.2195 13.5133 17.3886 12.6509 18.2509C11.7886 19.1133 10.6195 19.5984 9.4 19.6H7.6V21.4C7.6 21.5591 7.53679 21.7117 7.42426 21.8243C7.31174 21.9368 7.15913 22 7 22C6.84087 22 6.68826 21.9368 6.57574 21.8243C6.46321 21.7117 6.4 21.5591 6.4 21.4V19.6H4.6C3.38049 19.5984 2.21139 19.1133 1.34906 18.2509C0.486739 17.3886 0.00158756 16.2195 0 15C0 14.8409 0.063214 14.6883 0.175736 14.5757C0.288258 14.4632 0.44087 14.4 0.6 14.4C0.75913 14.4 0.911742 14.4632 1.02426 14.5757C1.13679 14.6883 1.2 14.8409 1.2 15C1.2 15.9017 1.55821 16.7665 2.19584 17.4042C2.83346 18.0418 3.69826 18.4 4.6 18.4H9.4C10.3017 18.4 11.1665 18.0418 11.8042 17.4042C12.4418 16.7665 12.8 15.9017 12.8 15C12.8 14.0983 12.4418 13.2335 11.8042 12.5958C11.1665 11.9582 10.3017 11.6 9.4 11.6H5.4C4.18 11.6 3.00998 11.1154 2.14731 10.2527C1.28464 9.39002 0.8 8.22 0.8 7C0.8 5.78 1.28464 4.60998 2.14731 3.74731C3.00998 2.88464 4.18 2.4 5.4 2.4H6.4V0.6C6.4 0.44087 6.46321 0.288258 6.57574 0.175736C6.68826 0.063214 6.84087 0 7 0C7.15913 0 7.31174 0.063214 7.42426 0.175736C7.53679 0.288258 7.6 0.44087 7.6 0.6V2.4H8.6C9.81951 2.40159 10.9886 2.88674 11.8509 3.74906C12.7133 4.61139 13.1984 5.78049 13.2 7C13.2 7.15913 13.1368 7.31174 13.0243 7.42426C12.9117 7.53679 12.7591 7.6 12.6 7.6C12.4409 7.6 12.2883 7.53679 12.1757 7.42426C12.0632 7.31174 12 7.15913 12 7C12 6.09826 11.6418 5.23346 11.0042 4.59584C10.3665 3.95821 9.50174 3.6 8.6 3.6H5.4C4.49826 3.6 3.63346 3.95821 2.99584 4.59584C2.35821 5.23346 2 6.09826 2 7C2 7.90174 2.35821 8.76654 2.99584 9.40416C3.63346 10.0418 4.49826 10.4 5.4 10.4H9.4C10.6195 10.4016 11.7886 10.8867 12.6509 11.7491C13.5133 12.6114 13.9984 13.7805 14 15Z" fill="white"/>
</svg>
