<svg width="22" height="14" viewBox="0 0 22 14" fill="none" xmlns="http://www.w3.org/2000/svg">
<path d="M21.4407 6.4429H19.1018L21.2132 1.26739C21.2691 1.13047 21.2681 0.977053 21.2104 0.840884C21.1527 0.704715 21.0431 0.59695 20.9056 0.541296C20.7681 0.485642 20.6141 0.486658 20.4774 0.544121C20.3407 0.601584 20.2325 0.710785 20.1766 0.847704L17.8983 6.4429H13.7966L11.5183 0.847704C11.4765 0.744953 11.4048 0.656976 11.3124 0.595035C11.2201 0.533094 11.1113 0.500006 11 0.500006C10.8887 0.500006 10.7799 0.533094 10.6876 0.595035C10.5952 0.656976 10.5235 0.744953 10.4817 0.847704L8.20339 6.4429H4.1017L1.82339 0.847704C1.79572 0.779909 1.75492 0.718205 1.70331 0.666116C1.65171 0.614027 1.5903 0.572574 1.52261 0.544121C1.45492 0.515668 1.38226 0.500775 1.30879 0.50029C1.23532 0.499805 1.16247 0.513739 1.09441 0.541296C1.02634 0.568853 0.964393 0.609493 0.912097 0.660897C0.859801 0.7123 0.818182 0.77346 0.789616 0.840884C0.76105 0.908308 0.746097 0.980676 0.74561 1.05386C0.745124 1.12704 0.759113 1.1996 0.78678 1.26739L2.89822 6.4429H0.559322C0.410981 6.4429 0.268715 6.50159 0.163822 6.60607C0.0589284 6.71055 0 6.85225 0 7C0 7.14776 0.0589284 7.28946 0.163822 7.39394C0.268715 7.49842 0.410981 7.55711 0.559322 7.55711H3.35593L5.63797 13.1523C5.67981 13.2551 5.75149 13.343 5.84382 13.405C5.93616 13.4669 6.04495 13.5 6.15627 13.5C6.26759 13.5 6.37639 13.4669 6.46872 13.405C6.56106 13.343 6.63273 13.2551 6.67458 13.1523L8.94915 7.55711H13.0508L15.3329 13.1523C15.3747 13.2551 15.4464 13.343 15.5387 13.405C15.6311 13.4669 15.7399 13.5 15.8512 13.5C15.9625 13.5 16.0713 13.4669 16.1636 13.405C16.256 13.343 16.3276 13.2551 16.3695 13.1523L18.6441 7.55711H21.4407C21.589 7.55711 21.7313 7.49842 21.8362 7.39394C21.9411 7.28946 22 7.14776 22 7C22 6.85225 21.9411 6.71055 21.8362 6.60607C21.7313 6.50159 21.589 6.4429 21.4407 6.4429ZM6.15254 11.4624L4.55941 7.55711H7.74568L6.15254 11.4624ZM9.40687 6.4429L11 2.53759L12.5931 6.4429H9.40687ZM15.8475 11.4624L14.2543 7.55711H17.4406L15.8475 11.4624Z" fill="white"/>
</svg>
