<svg width="17" height="20" viewBox="0 0 17 20" fill="none" xmlns="http://www.w3.org/2000/svg">
<path d="M16.8638 1.10305L9.89038 9.78543H13.7432C13.9166 9.78543 14.0829 9.85562 14.2055 9.98055C14.3281 10.1055 14.397 10.2749 14.397 10.4516C14.397 10.6283 14.3281 10.7977 14.2055 10.9227C14.0829 11.0476 13.9166 11.1178 13.7432 11.1178H9.16689V13.3383H13.7432C13.9166 13.3383 14.0829 13.4085 14.2055 13.5334C14.3281 13.6584 14.397 13.8278 14.397 14.0045C14.397 14.1812 14.3281 14.3506 14.2055 14.4755C14.0829 14.6005 13.9166 14.6707 13.7432 14.6707H9.16689V19.3338C9.16689 19.5105 9.09801 19.68 8.97541 19.8049C8.8528 19.9298 8.68651 20 8.51313 20C8.33974 20 8.17345 19.9298 8.05085 19.8049C7.92824 19.68 7.85936 19.5105 7.85936 19.3338V14.6707H3.28303C3.10964 14.6707 2.94335 14.6005 2.82075 14.4755C2.69814 14.3506 2.62927 14.1812 2.62927 14.0045C2.62927 13.8278 2.69814 13.6584 2.82075 13.5334C2.94335 13.4085 3.10964 13.3383 3.28303 13.3383H7.85936V11.1178H3.28303C3.10964 11.1178 2.94335 11.0476 2.82075 10.9227C2.69814 10.7977 2.62927 10.6283 2.62927 10.4516C2.62927 10.2749 2.69814 10.1055 2.82075 9.98055C2.94335 9.85562 3.10964 9.78543 3.28303 9.78543H7.13369L0.160223 1.10305C0.102871 1.03578 0.0593465 0.957464 0.0322277 0.872745C0.00510878 0.788026 -0.00505359 0.698625 0.00234195 0.609832C0.00973749 0.52104 0.0345407 0.434662 0.0752833 0.355811C0.116026 0.276961 0.171879 0.207242 0.239538 0.150781C0.307196 0.0943193 0.385284 0.0522636 0.469178 0.0271037C0.553072 0.00194374 0.641068 -0.00580917 0.727955 0.00430377C0.814843 0.0144167 0.898855 0.0421902 0.975021 0.0859797C1.05119 0.129769 1.11795 0.188685 1.17138 0.259238L8.51313 9.40017L15.8527 0.259238C15.9643 0.128391 16.1215 0.0469975 16.2909 0.0323399C16.4604 0.0176822 16.6289 0.0709142 16.7605 0.180734C16.8921 0.290554 16.9765 0.448314 16.9958 0.62052C17.0151 0.792727 16.9678 0.96582 16.8638 1.10305Z" fill="white"/>
</svg>
