<svg width="21" height="18" viewBox="0 0 21 18" fill="none" xmlns="http://www.w3.org/2000/svg">
<path d="M2.68085 1.18919C2.68085 1.0064 2.75146 0.831107 2.87715 0.701859C3.00284 0.572611 3.17331 0.5 3.35106 0.5H17.6489C17.8267 0.5 17.9972 0.572611 18.1228 0.701859C18.2485 0.831107 18.3191 1.0064 18.3191 1.18919C18.3191 1.37197 18.2485 1.54727 18.1228 1.67652C17.9972 1.80577 17.8267 1.87838 17.6489 1.87838H3.35106C3.17331 1.87838 3.00284 1.80577 2.87715 1.67652C2.75146 1.54727 2.68085 1.37197 2.68085 1.18919ZM20.3298 13.3649C20.152 13.3649 19.9816 13.4375 19.8559 13.5667C19.7302 13.696 19.6596 13.8713 19.6596 14.0541V16.1216H15.8617C15.3284 16.1216 14.817 15.9038 14.44 15.516C14.0629 15.1283 13.8511 14.6024 13.8511 14.0541V8.31081H19.4362C19.6139 8.31081 19.7844 8.2382 19.9101 8.10895C20.0358 7.9797 20.1064 7.80441 20.1064 7.62162C20.1064 7.43884 20.0358 7.26354 19.9101 7.13429C19.7844 7.00504 19.6139 6.93243 19.4362 6.93243H1.56383C1.38608 6.93243 1.21561 7.00504 1.08992 7.13429C0.964228 7.26354 0.893617 7.43884 0.893617 7.62162C0.893617 7.80441 0.964228 7.9797 1.08992 8.10895C1.21561 8.2382 1.38608 8.31081 1.56383 8.31081H7.14894V9.45946C7.14687 11.2257 6.46362 12.919 5.24908 14.168C4.03453 15.4169 2.38784 16.1195 0.670213 16.1216C0.492461 16.1216 0.32199 16.1942 0.196301 16.3235C0.0706114 16.4527 0 16.628 0 16.8108C0 16.9936 0.0706114 17.1689 0.196301 17.2981C0.32199 17.4274 0.492461 17.5 0.670213 17.5C2.74325 17.4976 4.73071 16.6497 6.19657 15.1423C7.66244 13.6349 8.487 11.5912 8.48936 9.45946V8.31081H12.5106V14.0541C12.5106 14.968 12.8637 15.8445 13.4921 16.4907C14.1206 17.1369 14.9729 17.5 15.8617 17.5H20.3298C20.5075 17.5 20.678 17.4274 20.8037 17.2981C20.9294 17.1689 21 16.9936 21 16.8108V14.0541C21 13.8713 20.9294 13.696 20.8037 13.5667C20.678 13.4375 20.5075 13.3649 20.3298 13.3649Z" fill="white"/>
</svg>
